<?xml version="1.0" encoding="UTF-8"?>
<svg version="1.1" xmlns="http://www.w3.org/2000/svg" width="16" height="16">
<path d="M0 0 C5.28 0 10.56 0 16 0 C16 5.28 16 10.56 16 16 C10.72 16 5.44 16 0 16 C0 10.72 0 5.44 0 0 Z " fill="#8D7E61" transform="translate(0,0)"/>
<path d="M0 0 C5.28 0 10.56 0 16 0 C16 2.31 16 4.62 16 7 C15.01 7 14.02 7 13 7 C11.3125 4.5 11.3125 4.5 10 2 C8.64381501 3.12534105 8.64381501 3.12534105 8.9375 6.0625 C8.958125 7.031875 8.97875 8.00125 9 9 C7.68 9 6.36 9 5 9 C4.67 8.01 4.34 7.02 4 6 C1.98491642 5.26676204 1.98491642 5.26676204 0 5 C0 3.35 0 1.7 0 0 Z " fill="#E5DDAB" transform="translate(0,0)"/>
<path d="M0 0 C2.375 0.3125 2.375 0.3125 5 1 C7.00293347 4.00440021 7.49271626 5.70993945 8.125 9.1875 C8.29257813 10.08855469 8.46015625 10.98960938 8.6328125 11.91796875 C8.75398437 12.60503906 8.87515625 13.29210938 9 14 C8.34 14 7.68 14 7 14 C6.67 12.68 6.34 11.36 6 10 C3.06556598 10.26656572 3.06556598 10.26656572 0 11 C-0.99 12.485 -0.99 12.485 -2 14 C-2.99 13.67 -3.98 13.34 -5 13 C-5 12.01 -5 11.02 -5 10 C-4.01 10 -3.02 10 -2 10 C-2.33 8.68 -2.66 7.36 -3 6 C-2.34 6 -1.68 6 -1 6 C-1 6.66 -1 7.32 -1 8 C0.32 8 1.64 8 3 8 C2.55296014 3.52116304 2.55296014 3.52116304 0 0 Z " fill="#655A44" transform="translate(6,1)"/>
<path d="M0 0 C0.33 1.32 0.66 2.64 1 4 C0.34 4 -0.32 4 -1 4 C-0.67 5.32 -0.34 6.64 0 8 C-0.99 8 -1.98 8 -3 8 C-2.2236068 11.0745356 -2.2236068 11.0745356 0 13 C-1.32 13 -2.64 13 -4 13 C-4 9.37 -4 5.74 -4 2 C-2.68 2.33 -1.36 2.66 0 3 C0 2.01 0 1.02 0 0 Z " fill="#8A8869" transform="translate(4,3)"/>
<path d="M0 0 C1.65 0 3.3 0 5 0 C5 2.31 5 4.62 5 7 C4.01 7 3.02 7 2 7 C0.5393715 4.35261084 0 3.10551666 0 0 Z " fill="#EDEDC7" transform="translate(11,0)"/>
<path d="M0 0 C1.32 0 2.64 0 4 0 C4 1.65 4 3.3 4 5 C2.02 5 0.04 5 -2 5 C-1.34 3.35 -0.68 1.7 0 0 Z " fill="#EFE19E" transform="translate(6,11)"/>
<path d="M0 0 C0.66 0 1.32 0 2 0 C2.66 1.32 3.32 2.64 4 4 C3.01 5.32 2.02 6.64 1 8 C0.01 7.67 -0.98 7.34 -2 7 C-2 6.01 -2 5.02 -2 4 C-1.01 4 -0.02 4 1 4 C0.67 2.68 0.34 1.36 0 0 Z " fill="#4D483D" transform="translate(3,7)"/>
<path d="M0 0 C0.33 0 0.66 0 1 0 C1 1.98 1 3.96 1 6 C-0.32 6 -1.64 6 -3 6 C-3 4.68 -3 3.36 -3 2 C-2.01 2 -1.02 2 0 2 C0 1.34 0 0.68 0 0 Z " fill="#E2C477" transform="translate(8,3)"/>
<path d="M0 0 C0.99 0 1.98 0 3 0 C3 2.31 3 4.62 3 7 C1.5 5.75 1.5 5.75 0 4 C0 2.68 0 1.36 0 0 Z " fill="#AEB381" transform="translate(13,7)"/>
</svg>
